<svg width="58" height="59" viewBox="0 0 58 59" fill="none" xmlns="http://www.w3.org/2000/svg">
<rect x="1.65839" y="1.39264" width="55.0929" height="55.5559" rx="27.5465" fill="#FAEDD7"/>
<rect x="1.65839" y="1.39264" width="55.0929" height="55.5559" rx="27.5465" stroke="#E48205" stroke-width="2.31483"/>
<g clip-path="url(#clip0_46_18)">
<path d="M30.2552 19.8534C31.5552 20.1071 32.75 20.7429 33.6866 21.6795C34.6232 22.6161 35.2591 23.8109 35.5127 25.111M30.2552 14.5293C32.9562 14.8294 35.4749 16.0389 37.3978 17.9594C39.3206 19.8798 40.5334 22.397 40.8368 25.0976M39.5058 35.7192V39.7123C39.5073 40.083 39.4314 40.4499 39.2829 40.7896C39.1344 41.1292 38.9165 41.4341 38.6434 41.6847C38.3702 41.9353 38.0478 42.1261 37.6966 42.2449C37.3454 42.3636 36.9733 42.4077 36.6042 42.3744C32.5084 41.9293 28.5741 40.5298 25.1174 38.2881C21.9014 36.2446 19.1748 33.518 17.1312 30.302C14.8818 26.8296 13.4819 22.8762 13.045 18.762C13.0117 18.3939 13.0555 18.0229 13.1734 17.6727C13.2914 17.3224 13.481 17.0006 13.7302 16.7276C13.9793 16.4547 14.2826 16.2366 14.6206 16.0873C14.9587 15.938 15.3242 15.8607 15.6937 15.8603H19.6868C20.3328 15.854 20.959 16.0827 21.4488 16.5039C21.9385 16.9251 22.2585 17.5101 22.3489 18.1497C22.5174 19.4276 22.83 20.6823 23.2806 21.8899C23.4597 22.3663 23.4984 22.884 23.3923 23.3818C23.2861 23.8796 23.0395 24.3365 22.6816 24.6983L20.9912 26.3887C22.886 29.721 25.6451 32.4801 28.9774 34.3749L30.6678 32.6845C31.0297 32.3266 31.4866 32.08 31.9843 31.9739C32.4821 31.8677 32.9998 31.9065 33.4762 32.0855C34.6838 32.5362 35.9386 32.8487 37.2164 33.0173C37.863 33.1085 38.4535 33.4341 38.8756 33.9323C39.2977 34.4305 39.522 35.0665 39.5058 35.7192Z" stroke="#EB6D0A" stroke-width="2.31483" stroke-linecap="round" stroke-linejoin="round"/>
</g>
<defs>
<clipPath id="clip0_46_18">
<rect width="31.9446" height="31.9446" fill="white" transform="translate(10.2231 13.1982)"/>
</clipPath>
</defs>
</svg>
