<svg width="59" height="59" viewBox="0 0 59 59" fill="none" xmlns="http://www.w3.org/2000/svg">
<path d="M10.9059 5.95065C12.5782 6.30641 13.6961 6.98584 14.7602 8.31905C15.4693 9.47125 15.6441 10.4315 15.6388 11.7782C15.6387 12.1108 15.6387 12.4434 15.6386 12.7861C15.636 13.1465 15.6333 13.5069 15.6305 13.8673C15.6295 14.238 15.6288 14.6088 15.6283 14.9795C15.6263 15.9524 15.6212 16.9252 15.6155 17.8981C15.6101 18.8919 15.6078 19.8858 15.6052 20.8797C15.5996 22.8277 15.5907 24.7757 15.5798 26.7237C15.8389 26.681 16.0981 26.6383 16.3651 26.5943C17.3731 26.4508 18.3555 26.4427 19.3743 26.4569C19.7447 26.4602 20.1151 26.4634 20.4855 26.4665C21.0628 26.473 21.64 26.4803 22.2172 26.4889C22.7789 26.4967 23.3405 26.5013 23.9022 26.5056C24.4029 26.5121 24.4029 26.5121 24.9138 26.5188C25.7351 26.5492 25.7351 26.5492 26.226 25.9447C26.2965 25.3571 26.2965 25.3571 26.2726 24.6709C26.27 24.4057 26.2674 24.1404 26.2648 23.8671C26.2597 23.5793 26.2546 23.2916 26.2493 22.9951C26.244 22.3885 26.2387 21.7819 26.2336 21.1754C26.2223 20.2169 26.2097 19.2585 26.1957 18.3001C26.1832 17.3766 26.1754 16.4533 26.1681 15.5298C26.1625 15.2441 26.1568 14.9584 26.151 14.6641C26.1342 12.0675 26.1342 12.0675 27.0049 10.8842C28.0597 10.0821 28.9694 9.99509 30.2531 10.0095C30.5409 10.008 30.5409 10.008 30.8345 10.0065C31.2496 10.0048 31.6647 10.0049 32.0798 10.0065C32.7383 10.0089 33.3966 10.0062 34.055 10.0022C35.9265 9.99183 37.798 9.9915 39.6695 9.99209C40.8159 9.9921 41.9622 9.9871 43.1086 9.97928C43.7548 9.97648 44.4007 9.97961 45.0468 9.98287C48.1557 10.0021 48.1557 10.0021 50.7635 8.43114C51.3631 7.7551 51.8402 7.0423 52.1922 6.21031C52.8373 6.85543 52.7846 7.25165 52.7971 8.13407C52.7949 8.4109 52.7949 8.4109 52.7927 8.69333C52.7908 8.97519 52.7908 8.97519 52.7888 9.26274C52.7479 11.136 52.4035 12.508 51.3645 14.0813C49.3576 15.9991 47.4228 15.961 44.7756 15.9193C44.4118 15.9173 44.048 15.9158 43.6842 15.9148C42.7331 15.9109 41.7821 15.9007 40.831 15.8891C39.858 15.8785 38.8849 15.8738 37.9118 15.8685C36.0072 15.8574 34.1027 15.8398 32.1982 15.8178C32.1996 16.1113 32.2009 16.4048 32.2023 16.7071C32.207 17.7969 32.21 18.8867 32.2125 19.9765C32.2138 20.448 32.2155 20.9195 32.2178 21.3909C32.2209 22.069 32.2224 22.7471 32.2236 23.4251C32.2249 23.6356 32.2262 23.8461 32.2276 24.0629C32.2277 24.9948 32.1905 25.8271 31.9385 26.7237C32.1257 26.6818 32.3129 26.6399 32.5058 26.5967C33.2031 26.4701 33.8397 26.4262 34.5472 26.418C34.9282 26.413 34.9282 26.413 35.3168 26.4079C35.5884 26.406 35.86 26.4041 36.1398 26.4021C36.4218 26.4 36.7038 26.3979 36.9944 26.3958C37.5903 26.3922 38.1861 26.3894 38.7819 26.3873C39.3904 26.3843 39.9988 26.379 40.6072 26.3714C41.4875 26.3603 42.3677 26.3561 43.2481 26.3534C43.6539 26.3466 43.6539 26.3466 44.0679 26.3397C45.703 26.3445 46.7232 26.4983 48.0376 27.5026C48.6785 28.4244 48.6297 29.3799 48.6233 30.4616C48.6247 30.7494 48.6247 30.7494 48.6261 31.0429C48.6279 31.4588 48.6285 31.8746 48.6282 32.2904C48.6279 32.9499 48.6313 33.6093 48.6357 34.2688C48.6477 36.1436 48.6541 38.0184 48.6558 39.8933C48.6571 41.0411 48.6635 42.1888 48.6728 43.3365C48.6753 43.7726 48.676 44.2086 48.6746 44.6446C48.5812 48.088 48.5812 48.088 50.231 51.0015C50.9071 51.6011 51.6199 52.0782 52.4519 52.4302C50.9332 53.3928 48.5693 53.1556 46.856 52.8197C45.2945 52.2861 44.2251 51.3903 43.3254 50.0279C42.5572 48.4251 42.716 46.6941 42.7429 44.9568C42.7449 44.5872 42.7464 44.2176 42.7474 43.848C42.7513 42.8815 42.7615 41.9151 42.773 40.9487C42.7837 39.96 42.7884 38.9712 42.7937 37.9825C42.8047 36.0471 42.8224 34.1118 42.8444 32.1766C42.5445 32.2189 42.2445 32.2612 41.9355 32.3048C40.8523 32.4397 39.7805 32.4699 38.6898 32.4616C38.4089 32.461 38.4089 32.461 38.1223 32.4605C37.5325 32.459 36.9426 32.4558 36.3528 32.4525C35.9494 32.4512 35.5461 32.45 35.1427 32.4489C34.1612 32.4461 33.1797 32.4416 32.1982 32.4362C32.2008 32.6888 32.2008 32.6888 32.2034 32.9465C32.2207 34.703 32.2324 36.4596 32.241 38.2162C32.2449 38.8713 32.2502 39.5264 32.257 40.1814C32.2664 41.1244 32.2708 42.0673 32.2743 43.0104C32.2803 43.4478 32.2803 43.4478 32.2865 43.8942C32.2868 45.4552 32.2694 46.6788 31.4192 48.016C30.2245 48.7654 29.3029 48.8918 27.9058 48.8908C27.7164 48.8917 27.527 48.8927 27.3319 48.8937C26.923 48.8954 26.5142 48.8953 26.1053 48.8937C25.4566 48.8913 24.8081 48.894 24.1595 48.898C22.3161 48.9084 20.4728 48.9087 18.6294 48.9081C17.4996 48.9081 16.3698 48.9131 15.24 48.9209C14.6036 48.9237 13.9674 48.9206 13.3311 48.9173C10.2469 48.9039 10.2469 48.9039 7.66041 50.4691C7.06108 51.1453 6.58391 51.858 6.23194 52.6899C5.26936 51.1713 5.5066 48.8073 5.84245 47.094C6.41808 45.4096 7.51073 44.0967 9.09197 43.2736C11.0344 42.5531 13.4119 42.7845 15.45 42.7882C15.9008 42.7879 15.9008 42.7879 16.3607 42.7875C16.991 42.7873 17.6212 42.7878 18.2514 42.7889C19.2194 42.7903 20.1874 42.7889 21.1554 42.7872C21.7691 42.7874 22.3828 42.7877 22.9964 42.7882C23.2866 42.7877 23.5768 42.7872 23.8758 42.7867C24.1429 42.7875 24.41 42.7883 24.6852 42.7891C25.0385 42.7894 25.0385 42.7894 25.3989 42.7898C25.9663 42.8227 25.9663 42.8227 26.4856 43.0824C26.4435 42.9522 26.4014 42.822 26.3579 42.6878C26.1777 41.8082 26.1889 40.9413 26.1915 40.0476C26.1912 39.8556 26.191 39.6635 26.1907 39.4657C26.1905 39.0606 26.191 38.6556 26.1921 38.2505C26.1935 37.6317 26.1921 37.0129 26.1905 36.3941C26.1906 35.9998 26.191 35.6056 26.1915 35.2114C26.1909 35.0269 26.1904 34.8424 26.1899 34.6523C26.194 33.7899 26.2188 33.0012 26.4856 32.1766C26.1219 32.2392 26.1219 32.2392 25.7508 32.3031C24.4646 32.4857 23.1818 32.4833 21.8847 32.489C21.4887 32.4912 21.4887 32.4912 21.0847 32.4935C20.5287 32.4959 19.9726 32.4976 19.4165 32.4986C18.5686 32.5011 17.7209 32.5092 16.873 32.5174C16.3311 32.5191 15.7891 32.5204 15.2471 32.5214C14.8693 32.5262 14.8693 32.5262 14.4839 32.5311C13.008 32.5263 11.928 32.4184 10.6462 31.6572C9.83374 30.612 9.7571 29.6892 9.77143 28.4091C9.76996 28.1213 9.76996 28.1213 9.76847 27.8277C9.7668 27.4126 9.76688 26.9975 9.76852 26.5823C9.77089 25.9239 9.76822 25.2656 9.7642 24.6072C9.75381 22.7357 9.75347 20.8642 9.75406 18.9927C9.75407 17.8463 9.74908 16.7 9.74125 15.5536C9.73845 14.9074 9.74158 14.2615 9.74484 13.6154C9.74172 10.8024 9.74172 10.8024 8.56891 8.28761C7.78106 7.54016 6.91341 7.00776 5.97228 6.46997C7.35279 5.54963 9.28586 5.79359 10.9059 5.95065Z" fill="#F54B10"/>
<path d="M21.8118 34.7731C22.852 35.3226 23.462 35.7536 23.8891 36.8504C24.0004 38.1467 23.8023 38.9808 22.9641 39.9826C21.9085 40.5775 21.1771 40.7867 19.9942 40.4857C19.2119 40.0261 18.5888 39.4926 18.1766 38.668C17.9996 36.899 17.9996 36.899 18.4484 36.1171C19.5054 34.8331 20.1703 34.6363 21.8118 34.7731Z" fill="#F54B10"/>
<path d="M38.9496 35.0327C39.71 35.669 40.1354 36.1231 40.3706 37.1009C40.4475 38.1278 40.2796 38.7558 39.6312 39.5606C38.778 40.3935 38.6371 40.4687 37.4403 40.5668C36.603 40.5561 36.3548 40.4867 35.6064 40.0312C34.9466 39.3326 34.5564 38.8078 34.5049 37.8322C34.6097 36.8444 34.6748 36.2315 35.2818 35.4222C36.455 34.5941 37.6113 34.6577 38.9496 35.0327Z" fill="#F54B10"/>
<path d="M38.4301 18.4143C39.2124 18.8739 39.8354 19.4074 40.2477 20.232C40.3758 21.5131 40.3839 22.0676 39.7446 23.2019C38.7199 24.0593 37.9323 24.2301 36.6124 24.1269C35.7815 23.8018 35.4126 23.4596 34.8272 22.7961C34.4032 21.7125 34.4389 20.8182 34.7948 19.7126C35.8246 18.4819 36.874 18.0184 38.4301 18.4143Z" fill="#F54B10"/>
<path d="M22.0713 18.4143C22.9572 18.9137 23.4812 19.2818 23.819 20.2644C24.0063 21.3625 23.9498 21.9256 23.4508 22.9422C22.7643 23.7029 22.2767 24.087 21.2447 24.1756C20.0994 24.0803 19.5868 23.9611 18.6795 23.2019C18.0845 22.1463 17.8754 21.4149 18.1764 20.232C19.1177 18.6296 20.2434 18.1261 22.0713 18.4143Z" fill="#F54B10"/>
<path d="M9.60756 43.3419C9.2601 44.102 8.86574 44.6837 8.30924 45.3056C7.82174 45.8528 7.42062 46.3627 7.01093 46.9772C6.83955 46.9772 6.66818 46.9772 6.49161 46.9772C6.48456 47.3504 6.47954 47.7237 6.47538 48.097C6.47236 48.3049 6.46935 48.5127 6.46625 48.7269C6.46653 49.3579 6.46653 49.3579 6.75127 50.0931C6.85838 49.8789 6.96549 49.6647 7.07585 49.444C7.30078 49.1227 7.30078 49.1227 7.53026 48.7948C7.87301 48.7948 8.21577 48.7948 8.56891 48.7948C8.76169 48.7109 8.95447 48.6269 9.1531 48.5403C10.0854 48.1946 10.9644 48.1956 11.9453 48.1927C12.1507 48.1901 12.356 48.1875 12.5676 48.1848C13.2433 48.1768 13.9191 48.1724 14.5949 48.168C15.0646 48.1631 15.5343 48.158 16.004 48.1528C17.2381 48.1394 18.4722 48.1291 19.7063 48.1195C20.9665 48.1091 22.2267 48.0958 23.4868 48.0828C25.9578 48.0577 28.4288 48.0358 30.8999 48.0158C30.8142 48.1872 30.7285 48.3586 30.6402 48.5352C29.7141 48.8439 28.9722 48.8291 27.9942 48.8317C27.805 48.8326 27.6157 48.8335 27.4207 48.8344C27.0097 48.8363 26.5987 48.8377 26.1876 48.8386C25.5358 48.8405 24.884 48.8446 24.2322 48.8494C22.3789 48.863 20.5256 48.8754 18.6722 48.8795C17.5382 48.8821 16.4043 48.8897 15.2703 48.9006C14.8393 48.9038 14.4084 48.9051 13.9774 48.9045C10.5553 48.823 10.5553 48.823 7.66052 50.4689C7.06111 51.1451 6.58393 51.8578 6.23194 52.6898C5.26936 51.1711 5.5066 48.8072 5.84245 47.0938C6.34704 45.6173 7.21548 44.5217 8.48776 43.634C9.08823 43.3419 9.08823 43.3419 9.60756 43.3419Z" fill="#F54B10"/>
<path d="M52.1924 6.21021C52.7117 6.72953 52.7117 6.72953 52.7715 7.64342C52.7705 8.01501 52.7667 8.3866 52.7604 8.75814C52.7601 9.03554 52.7601 9.03554 52.7599 9.31855C52.7517 10.3037 52.6872 11.2248 52.452 12.1824C52.3663 12.1824 52.2806 12.1824 52.1924 12.1824C52.1924 10.8114 52.1924 9.44041 52.1924 8.02784C52.021 8.02784 51.8496 8.02784 51.673 8.02784C51.6355 8.22064 51.5981 8.41344 51.5594 8.61208C51.0336 9.53755 50.5762 9.74776 49.6103 10.1518C47.8449 10.6257 45.9727 10.4893 44.158 10.4662C43.7073 10.4643 43.2565 10.4628 42.8058 10.4618C41.6263 10.4578 40.4469 10.4477 39.2674 10.4361C38.0611 10.4255 36.8548 10.4207 35.6485 10.4155C33.2866 10.4044 30.9249 10.3867 28.5631 10.3648C28.4774 10.6219 28.3917 10.8789 28.3034 11.1438C28.0463 10.9724 27.7893 10.801 27.5244 10.6245C28.4557 10.0036 29.1194 10.0325 30.1943 10.0388C30.386 10.0379 30.5778 10.037 30.7754 10.036C31.192 10.0342 31.6085 10.0335 32.0251 10.0339C32.6857 10.0341 33.3461 10.0308 34.0067 10.0264C35.8848 10.0144 37.763 10.008 39.6411 10.0062C40.7903 10.0049 41.9394 9.99862 43.0885 9.98929C43.5253 9.98675 43.962 9.98613 44.3988 9.98751C47.8464 10.0817 47.8464 10.0817 50.7636 8.43107C51.3632 7.75504 51.8404 7.04222 52.1924 6.21021Z" fill="#F54B10"/>
<path d="M9.60756 43.3419C9.2601 44.102 8.86574 44.6837 8.30924 45.3056C7.82174 45.8528 7.42062 46.3627 7.01093 46.9772C6.83955 46.9772 6.66818 46.9772 6.49161 46.9772C6.48456 47.3504 6.47954 47.7237 6.47538 48.097C6.47236 48.3049 6.46935 48.5127 6.46625 48.7269C6.46653 49.3579 6.46653 49.3579 6.75127 50.0931C7.00833 49.6647 7.2654 49.2363 7.53026 48.7948C7.78732 48.9662 8.04439 49.1376 8.30924 49.3142C7.6345 50.4506 6.9346 51.5705 6.23194 52.6898C5.26936 51.1711 5.5066 48.8072 5.84245 47.0938C6.34704 45.6173 7.21548 44.5217 8.48776 43.634C9.08823 43.3419 9.08823 43.3419 9.60756 43.3419Z" fill="#F54B10"/>
<path d="M23.11 19.453C23.2814 19.5387 23.4528 19.6244 23.6294 19.7127C23.9891 20.916 24.0057 21.8119 23.4508 22.9422C22.8787 23.5762 22.5882 23.829 21.8117 24.1269C21.2082 24.1391 21.2082 24.1391 20.5945 24.062C20.39 24.0393 20.1855 24.0165 19.9748 23.993C19.8098 23.9515 19.6448 23.91 19.4748 23.8673C19.3891 23.6959 19.3034 23.5245 19.2151 23.3479C19.5471 23.3105 19.8792 23.273 20.2213 23.2343C20.8398 23.1645 21.252 23.1085 21.8117 22.8286C21.8117 22.5716 21.8117 22.3145 21.8117 22.0496C22.3258 21.8783 22.84 21.7069 23.3697 21.5303C23.3697 21.1875 23.3697 20.8448 23.3697 20.4917C23.1983 20.4917 23.0269 20.4917 22.8504 20.4917C22.9361 20.1489 23.0217 19.8061 23.11 19.453Z" fill="#F54B10"/>
<path d="M19.9942 42.7902C20.3175 42.7892 20.6409 42.7882 20.974 42.7872C22.4903 42.7888 23.9547 42.8025 25.4471 43.0823C25.4471 43.2537 25.4471 43.4251 25.4471 43.6016C21.9339 43.6016 18.4206 43.6016 14.8009 43.6016C14.7152 43.4303 14.6295 43.2589 14.5413 43.0823C16.3511 42.743 18.1581 42.7845 19.9942 42.7902Z" fill="#F54B10"/>
<path d="M49.0764 49.8335C49.2478 50.0209 49.4192 50.2084 49.5957 50.4015C50.4374 51.2504 51.4247 51.8311 52.452 52.4301C51.4858 53.0481 50.6258 53.0189 49.4984 53.0144C49.1643 53.0157 48.8302 53.017 48.4861 53.0184C47.5529 52.9519 46.828 52.7686 45.9604 52.4301C46.7797 52.187 47.5096 52.143 48.3623 52.1542C48.594 52.1566 48.8256 52.1589 49.0642 52.1613C49.2396 52.1643 49.415 52.1674 49.5957 52.1705C49.5957 51.9991 49.5957 51.8277 49.5957 51.6511C49.4243 51.5654 49.253 51.4798 49.0764 51.3915C49.2478 51.3915 49.4192 51.3915 49.5957 51.3915C49.5957 51.2201 49.5957 51.0487 49.5957 50.8721C49.4243 50.8721 49.253 50.8721 49.0764 50.8721C49.0764 50.5294 49.0764 50.1866 49.0764 49.8335Z" fill="#F54B10"/>
<path d="M8.81247 5.8856C8.99841 5.88359 9.18435 5.88159 9.37592 5.87952C10.4392 5.88346 10.9695 5.98224 11.9447 6.46984C11.0021 6.55553 10.0595 6.64122 9.08836 6.72951C9.25974 7.67208 9.43112 8.61466 9.60769 9.58579C9.46309 9.39299 9.31849 9.2002 9.16951 9.00155C8.24918 7.90711 7.20809 7.17595 5.97241 6.46984C6.9392 5.82532 7.69457 5.87359 8.81247 5.8856Z" fill="#F54B10"/>
<path d="M26.4856 31.9168C25.6692 32.3945 25.0786 32.4998 24.1373 32.4951C23.7475 32.495 23.7475 32.495 23.3498 32.495C23.0712 32.4923 22.7926 32.4896 22.5055 32.4868C22.2188 32.4861 21.9321 32.4854 21.6367 32.4846C20.7213 32.4817 19.8059 32.4752 18.8905 32.4686C18.2698 32.466 17.649 32.4636 17.0282 32.4615C15.5068 32.4558 13.9853 32.4471 12.4639 32.4361C12.4639 32.2648 12.4639 32.0934 12.4639 31.9168C17.1585 31.6144 21.7911 31.7131 26.4856 31.9168Z" fill="#F54B10"/>
<path d="M14.8008 8.80688C15.4556 9.4617 15.5709 9.90272 15.611 10.8199C15.6104 11.1088 15.6098 11.3977 15.6092 11.6953C15.6092 12.0228 15.6092 12.3502 15.6092 12.6876C15.6079 13.045 15.6065 13.4024 15.6051 13.7597C15.6046 14.1254 15.6043 14.4911 15.604 14.8567C15.603 15.8185 15.6005 16.7802 15.5976 17.742C15.5949 18.7236 15.5938 19.7053 15.5924 20.687C15.5897 22.6126 15.5852 24.5383 15.5798 26.4639C15.4941 26.4639 15.4084 26.4639 15.3201 26.4639C15.3201 21.2369 15.3201 16.0099 15.3201 10.6245C15.1487 10.6245 14.9774 10.6245 14.8008 10.6245C14.8008 10.0247 14.8008 9.42488 14.8008 8.80688Z" fill="#F54B10"/>
<path d="M20.2537 36.5907C20.3394 36.7621 20.4251 36.9335 20.5133 37.11C20.4276 37.3671 20.342 37.6242 20.2537 37.889C20.3548 38.4454 20.3548 38.4454 20.5133 38.9277C20.0849 39.099 19.6564 39.2704 19.215 39.447C19.1293 39.1042 19.0436 38.7615 18.9554 38.4083C18.784 38.4083 18.6126 38.4083 18.436 38.4083C18.436 37.9799 18.436 37.5514 18.436 37.11C19.0359 36.9386 19.6357 36.7673 20.2537 36.5907Z" fill="#F54B10"/>
<path d="M7.53032 48.7949C7.78739 48.9663 8.04445 49.1377 8.30931 49.3142C7.63457 50.4507 6.93467 51.5706 6.23201 52.6899C5.98101 51.8792 5.97497 51.2563 6.08595 50.4178C6.11239 50.2103 6.13883 50.0028 6.16608 49.7889C6.18784 49.6323 6.20959 49.4756 6.23201 49.3142C6.48907 49.6998 6.48907 49.6998 6.75133 50.0932C7.0084 49.6648 7.26547 49.2363 7.53032 48.7949Z" fill="#F54B10"/>
<path d="M31.679 32.4362C31.7646 32.4362 31.8503 32.4362 31.9386 32.4362C32.2317 34.3007 32.228 36.1343 32.2145 38.0189C32.2133 38.3315 32.2122 38.6442 32.211 38.9663C32.2079 39.7324 32.2037 40.4985 32.1983 41.2647C32.0269 41.2647 31.8555 41.2647 31.679 41.2647C31.6271 40.2803 31.5796 39.2957 31.5329 38.311C31.5183 38.0355 31.5038 37.7601 31.4888 37.4762C31.4102 35.7678 31.4513 34.1319 31.679 32.4362Z" fill="#F54B10"/>
<path d="M36.6123 19.1934C36.5267 19.3433 36.441 19.4933 36.3527 19.6478C36.0227 20.2836 36.0227 20.2836 36.093 21.2707C35.5789 21.5277 35.5789 21.5277 35.0544 21.79C34.9783 20.2178 34.9783 20.2178 35.0544 19.7127C35.8334 19.1934 35.8334 19.1934 36.6123 19.1934Z" fill="#F54B10"/>
<path d="M21.5673 18.3181C22.319 18.4618 22.6621 18.8559 23.11 19.4531C22.5102 19.2817 21.9104 19.1103 21.2924 18.9338C21.2924 19.1051 21.2924 19.2765 21.2924 19.4531C21.0353 19.4531 20.7783 19.4531 20.5134 19.4531C20.5134 19.2817 20.5134 19.1103 20.5134 18.9338C20.085 19.0194 19.6565 19.1051 19.2151 19.1934C19.8173 18.2901 20.5296 18.2856 21.5673 18.3181Z" fill="#F54B10"/>
<path d="M27.005 10.8842C27.3478 10.8842 27.6905 10.8842 28.0437 10.8842C27.9463 11.5171 27.9463 11.5171 27.784 12.1825C27.5269 12.311 27.5269 12.311 27.2647 12.4421C27.1589 13.045 27.0714 13.6513 27.005 14.2598C26.6286 13.6519 26.4745 13.3303 26.5486 12.6085C26.6028 12.4036 26.657 12.1988 26.7129 11.9877C26.7658 11.7802 26.8187 11.5727 26.8732 11.3589C26.9167 11.2022 26.9602 11.0456 27.005 10.8842Z" fill="#F54B10"/>
<path d="M39.209 19.1934C39.8062 19.6413 40.2003 19.9844 40.344 20.7361C40.3882 22.1486 40.3882 22.1486 39.851 22.7627C39.7249 22.8702 39.5987 22.9776 39.4686 23.0883C39.4717 22.8724 39.4747 22.6565 39.4778 22.4341C39.4801 22.1519 39.4825 21.8697 39.4849 21.579C39.4879 21.2988 39.4909 21.0187 39.494 20.73C39.504 19.9554 39.504 19.9554 39.209 19.1934Z" fill="#F54B10"/>
<path d="M34.7948 19.7126C34.8805 19.7126 34.9662 19.7126 35.0545 19.7126C35.2259 20.9123 35.3972 22.1119 35.5738 23.3479C34.7948 22.5689 34.7948 22.5689 34.5352 22.0496C34.5576 21.6481 34.5975 21.2475 34.6488 20.8487C34.6752 20.6365 34.7016 20.4242 34.7289 20.2056C34.7506 20.0429 34.7724 19.8803 34.7948 19.7126Z" fill="#F54B10"/>
<path d="M31.6789 16.5968C31.7646 16.5968 31.8503 16.5968 31.9386 16.5968C32.1547 18.0822 32.2295 19.5108 32.1983 21.0111C32.0269 21.0968 31.8555 21.1824 31.6789 21.2707C31.3591 19.6715 31.4893 18.2101 31.6789 16.5968Z" fill="#F54B10"/>
<path d="M38.4303 18.4144C38.4303 18.5001 38.4303 18.5857 38.4303 18.674C37.9162 18.674 37.402 18.674 36.8723 18.674C36.958 19.0168 37.0437 19.3595 37.132 19.7127C36.9606 19.7127 36.7892 19.7127 36.6127 19.7127C36.6127 19.5413 36.6127 19.3699 36.6127 19.1934C36.0985 19.3647 35.5844 19.5361 35.0547 19.7127C36.1505 18.3429 36.7724 18.2739 38.4303 18.4144Z" fill="#F54B10"/>
<path d="M7.53024 48.7949C7.78731 48.9663 8.04437 49.1377 8.30923 49.3142C7.59516 50.5801 7.59516 50.5801 7.01092 50.8722C6.97846 50.1257 6.97846 50.1257 7.01092 49.3142C7.18229 49.1429 7.35367 48.9715 7.53024 48.7949Z" fill="#F54B10"/>
<path d="M51.6729 12.1825C51.8443 12.1825 52.0157 12.1825 52.1923 12.1825C51.8515 13.2047 51.4343 13.7995 50.6343 14.5195C50.6343 14.1767 50.6343 13.8339 50.6343 13.4808C50.8057 13.4808 50.977 13.4808 51.1536 13.4808C51.2098 13.2318 51.2098 13.2318 51.2672 12.9777C51.4133 12.4422 51.4133 12.4422 51.6729 12.1825Z" fill="#F54B10"/>
<path d="M6.23197 46.1982C6.31766 46.1982 6.40335 46.1982 6.49163 46.1982C6.49163 46.9694 6.49163 47.7406 6.49163 48.5352C6.23457 48.5352 5.9775 48.5352 5.71265 48.5352C5.88402 47.764 6.0554 46.9928 6.23197 46.1982Z" fill="#F54B10"/>
</svg>
